<svg width="40" height="40" viewBox="0 0 40 40" fill="none" xmlns="http://www.w3.org/2000/svg">
<path d="M28 0C34.6274 2.98935e-06 40 5.37259 40 12V28C40 34.6274 34.6274 40 28 40H12C5.37258 40 0 34.6274 0 28V12C0 5.37258 5.37258 0 12 0H28ZM24.0928 6C23.6834 5.9991 22.487 6.0212 17.0029 6.00293C15.5158 5.99802 14.3654 6.27886 13.4922 6.77832C12.6067 7.28481 12.0699 7.98015 11.7646 8.68164C11.5255 9.23131 11.4341 9.77011 11.4072 10.21C9.31101 10.3655 7.93035 10.9996 7.07422 11.9521C6.09375 13.0431 6 14.3373 6 15.0859V21.2578C6.00001 23.1851 7.25347 24.2962 8.58008 24.8701C9.53566 25.2835 10.6149 25.4671 11.541 25.5352C11.7451 26.6626 12.3086 27.5919 13.1455 28.2656C14.1846 29.1021 15.5617 29.4834 17 29.4834H22.6572L28.2051 33.79L29.8184 35.042V29.4287C31.5586 29.2364 32.6802 28.5303 33.3232 27.5117C34.0203 26.4072 34 25.143 34 24.5693V15.0859C34 14.0065 33.725 13.1093 33.2363 12.3887C32.7522 11.6747 32.0995 11.1942 31.4346 10.873C30.5473 10.4446 29.5858 10.2759 28.8213 10.2109C28.578 8.9097 27.858 7.92295 27.0508 7.24707C26.0985 6.44985 24.9251 6.00186 24.0928 6ZM28.9092 12.2295C29.4495 12.2934 30.0435 12.4217 30.5654 12.6738C30.9912 12.8795 31.338 13.1524 31.5811 13.5107C31.8197 13.8627 32 14.3589 32 15.0859V24.5693C32 25.1998 31.9798 25.8931 31.6318 26.4443C31.3451 26.8985 30.6782 27.4834 28.8184 27.4834H27.8184V30.957L23.6133 27.6934L23.3428 27.4834H17C15.8929 27.4834 14.9966 27.1878 14.3994 26.707C14.0447 26.4214 13.7657 26.0486 13.6055 25.5693H25.9092C27.566 25.5693 28.9092 24.2262 28.9092 22.5693V12.2295ZM26.9092 12.1719V22.5693C26.9092 23.1216 26.4614 23.5693 25.9092 23.5693H13.4541V12.1719H26.9092ZM11.4541 23.5195C10.7465 23.4511 9.99873 23.3054 9.37402 23.0352C8.47348 22.6456 8.00001 22.1003 8 21.2578V15.0859C8 14.4798 8.0878 13.8163 8.56152 13.2891C8.95436 12.852 9.75758 12.3536 11.4541 12.2119V23.5195ZM13.4326 10.9619V10.9629C13.4328 10.964 13.4335 10.9652 13.4336 10.9658V10.9668C13.4334 10.9659 13.4322 10.9641 13.4316 10.9609L13.4326 10.9619ZM24.0889 8C24.3478 8.00075 25.0838 8.20877 25.7676 8.78125C26.1895 9.13461 26.5496 9.59332 26.7471 10.1719H13.4199C13.4459 9.94997 13.498 9.71085 13.5986 9.47949C13.7479 9.13644 14.0072 8.78816 14.4854 8.51465C14.9757 8.23416 15.7571 7.9988 16.9971 8.00293C22.4209 8.021 23.7707 7.99929 24.0889 8Z" fill="url(#paint0_linear_1001_85)"/>
<defs>
<linearGradient id="paint0_linear_1001_85" x1="-1.18976e-07" y1="0.5" x2="36.5" y2="37" gradientUnits="userSpaceOnUse">
<stop stop-color="#00E5FF"/>
<stop offset="0.9999" stop-color="#7C3AED"/>
</linearGradient>
</defs>
</svg>
